<svg xmlns="http://www.w3.org/2000/svg" width="32" height="32">
    <path style="stroke:none;fill-rule:nonzero;fill:#000;fill-opacity:1" d="M16 2.668A9.324 9.324 0 0 0 6.668 12c0 2.32.664 4.492 1.879 6.453 1.265 2.055 2.933 3.813 4.215 5.867.625 1 1.078 1.934 1.558 3.012.348.734.625 2 1.68 2s1.332-1.266 1.668-2c.492-1.078.934-2.012 1.559-3.012 1.28-2.039 2.945-3.8 4.214-5.867 1.227-1.96 1.891-4.133 1.891-6.453A9.324 9.324 0 0 0 16 2.668Zm0 13a3.336 3.336 0 0 1-3.332-3.336 3.333 3.333 0 0 1 6.664 0A3.336 3.336 0 0 1 16 15.668Zm0 0"/>
</svg>
