<?xml version="1.0" encoding="utf-8"?>
<!-- Generator: Adobe Illustrator 28.2.0, SVG Export Plug-In . SVG Version: 6.00 Build 0)  -->
<svg version="1.1" id="Lager_1" xmlns="http://www.w3.org/2000/svg" xmlns:xlink="http://www.w3.org/1999/xlink" x="0px" y="0px"
	 viewBox="0 0 216.34 59.23" style="enable-background:new 0 0 216.34 59.23;" xml:space="preserve">
<style type="text/css">
	.st0{fill:none;stroke:#000000;stroke-miterlimit:10;}
	.st1{fill:#FFFFFF;}
</style>
<g>
</g>
<g>
</g>
<path class="st0" d="M67.57,52.09"/>
<g>
	<path class="st1" d="M39.04,37.37c-2.24,0.07-3.88,0.11-4.92,0.11c-1.6,0-3.82-0.04-6.65-0.11c-0.6,0.63-1.32,1.37-2.18,2.23
		c-0.86,0.86-1.67,1.65-2.43,2.38s-1.42,1.35-1.97,1.86c-0.55,0.51-1,0.94-1.36,1.28c-2.07,1.94-3.41,3.21-4.04,3.81
		c-0.79,0.75-0.88,0.69-1.97,1.61c-0.51,0.43-1.05,0.83-1.57,1.25c-0.38,0.31-0.73,0.6-1.28,0.8c-0.48,0.17-0.82,0.3-0.99,0.16
		c-0.53-0.42,0.73-3.16,2.36-5.28c1.02-1.33,2-2.17,2.21-2.35c1.32-1.12,2.12-1.39,3.83-2.65c0.9-0.66,1.55-1.15,2.33-1.92
		c1.95-1.92,2.41-3.33,3.87-3.58c0.59-0.1,1.1,0.02,1.4,0.12c-1.59,0.29-2.88,0.34-3.79,0.33c-0.17,0-1.24-0.02-2.5-0.3
		c-0.37-0.08-0.73-0.18-1.13-0.38c-0.38-0.19-0.86-0.51-1.07-0.79c-0.71-0.91,0.19-2.91,0.99-4.05c1.81-2.57,4.75-3.08,5.04-3.13
		c1.44-0.23,2.66,0.03,4.21,0.35c1.23,0.26,2.22,0.6,2.9,0.86c-1.95,0.05-3.44,0.43-4.45,0.77c-0.73,0.25-2.09,0.79-2.03,1.01
		c0.03,0.14,0.6,0.12,1.1,0.08c0.54,0,1.04,0,1.5,0c0.76,0,1.14-0.01,1.79-0.01c0.13,0,0.24,0,0.31,0c3.9-3.36,6.99-6.14,9.06-8.03
		c3.63-3.3,4.9-4.58,7.53-6.68c3.26-2.6,5.91-4.34,8-5.7c2.02-1.32,6.03-3.84,11.36-6.54c0.2-0.1,0.36-0.18,0.47-0.23
		C63.4,6.5,62.1,8.1,61.11,9.36c-2.91,3.67-4.09,5.45-4.54,6.14c-0.51,0.79-0.99,1.58-1.42,2.28c-1.5,2.46-2.51,4.34-3.02,5.17
		c-1.54,2.53-3.1,5.22-4.68,8.06c0.52,0,0.95,0,1.3,0.01c0.34,0.01,0.71,0.02,1.1,0.04c1.06,0,1.71,0.02,1.94,0.05
		s0.35,0.22,0.35,0.54c0,0.14-0.14,0.4-0.43,0.77c-0.29,0.37-0.8,0.98-1.52,1.84c-0.73,0.86-1.43,1.72-2.12,2.61l-4.11,0.32
		c-1.43,3.75-2.52,5.65-3.27,6.7c-0.2,0.27-0.76,1.04-0.54,1.34c0.19,0.25,0.86,0.1,1.74-0.23c1.08-0.41,3.41-1.44,7.91-4.35
		c0.18-0.25,0.43-0.31,0.53-0.23c0.09,0.07,0.09,0.3-0.04,0.51c-3.52,2.73-6.05,4.71-7.33,5.76c-0.51,0.42-1.07,0.82-2.21,1.59
		c-0.62,0.42-1.19,0.74-1.7,0.95c-0.51,0.21-1.03,0.31-1.55,0.31c-0.61,0-1.22-0.27-1.82-0.82c-0.6-0.55-0.89-1.33-0.89-2.34
		c0-0.41,0.16-1,0.48-1.77c0.32-0.77,0.66-1.5,1.02-2.2C36.65,41.71,37.57,40.03,39.04,37.37z M33.76,31.23l9.05-0.16
		c1.06-1.75,1.92-3.16,2.59-4.24s1.39-2.26,2.18-3.52s1.47-2.35,2.04-3.23c0.57-0.88,1.2-1.88,1.89-3c-1.34,0.81-2.71,1.71-4.11,2.7
		c-1.4,0.99-2.97,2.18-4.72,3.58c-1.75,1.4-3.31,2.69-4.67,3.89C36.65,28.45,35.23,29.78,33.76,31.23z"/>
	<path class="st1" d="M57.42,36.19c-1.7,2.25-2.99,3.85-3.88,4.8s-1.61,1.42-2.17,1.42c-0.45,0-0.86-0.18-1.23-0.55
		s-0.67-0.87-0.87-1.49s-0.31-1.3-0.31-2.01c0-0.47,0.04-0.89,0.13-1.27c0.09-0.38,0.25-0.79,0.5-1.24s0.57-0.94,0.98-1.47
		s0.9-1.12,1.49-1.79c0.35-0.41,0.65-0.76,0.89-1.04s0.47-0.47,0.7-0.57s0.6-0.15,1.12-0.15c0.38,0,0.73,0.05,1.07,0.15
		c0.2,0.06,0.32,0.17,0.51,0.31c0.35,0.25,0.94,0.67,0.86,0.91c-0.07,0.22-0.69,0.04-1.38,0.23c-0.7,0.2-1.1,0.67-1.72,1.43
		c-0.97,1.18-1.74,2.12-2.38,2.94c-0.2,0.28-0.58,0.88-0.56,1.56c0.01,0.19,0.02,0.49,0.23,0.65c0.09,0.07,0.21,0.1,0.35,0.1
		c0.14,0,0.38-0.12,0.7-0.36s0.88-0.7,1.66-1.39c0.78-0.69,1.48-1.29,2.1-1.82c0.46-0.4,0.99-0.99,1.59-1.78s1.09-1.39,1.47-1.78
		c0.87-0.91,1.46-1.51,1.78-1.78s0.62-0.41,0.91-0.41c0.28,0,0.47,0.09,0.57,0.26s0.15,0.53,0.15,1.07c0,0.25-0.02,0.45-0.07,0.6
		s-0.14,0.35-0.29,0.59s-0.44,0.68-0.89,1.33s-0.97,1.41-1.58,2.29c-0.33,0.47-0.62,0.98-0.86,1.54c-0.25,0.56-0.37,0.98-0.37,1.26
		c0,0.61,0.24,0.91,0.72,0.91c0.4,0,0.86-0.16,1.39-0.49s1.34-0.92,2.43-1.78v1.18c-1.37,1.27-2.38,2.19-3.04,2.76
		s-1.22,1.01-1.71,1.3s-0.94,0.44-1.37,0.44c-0.98,0-1.48-0.59-1.48-1.76c0-0.45,0.15-1.05,0.44-1.8S56.77,37.62,57.42,36.19z"/>
	<path class="st1" d="M62.82,38.74v-1.14c0.63-0.75,1.11-1.39,1.44-1.92c-0.38-0.13-0.65-0.29-0.82-0.47s-0.25-0.47-0.25-0.84
		c0-0.42,0.18-0.96,0.53-1.6c0.35-0.64,0.79-1.25,1.3-1.81s0.98-0.93,1.41-1.09c0.16-0.08,0.32-0.12,0.47-0.12
		c0.23,0,0.35,0.11,0.35,0.33c0,0.2-0.18,0.6-0.54,1.21c2.41-0.38,3.94-0.56,4.57-0.56c0.25,0,0.42,0.02,0.51,0.07
		c0.2,0.11,0.36,0.35,0.49,0.74s0.19,0.77,0.19,1.16c0,0.25-0.11,0.51-0.33,0.8s-0.59,0.71-1.12,1.26
		c-0.62,0.67-1.14,1.39-1.56,2.18c-0.42,0.79-0.63,1.38-0.63,1.78c0,0.55,0.34,0.83,1.02,0.83c0.71,0,1.96-0.73,3.73-2.18v1.18
		c-0.97,1.02-1.78,1.82-2.41,2.41s-1.22,1.05-1.76,1.4s-1.02,0.52-1.44,0.52c-0.49,0-0.9-0.23-1.23-0.68s-0.49-1.1-0.49-1.96
		c0-0.5,0.13-1.08,0.39-1.72s0.64-1.35,1.13-2.1s1.06-1.51,1.68-2.26c-0.33,0.07-0.7,0.14-1.11,0.22s-0.84,0.16-1.3,0.24
		s-0.81,0.15-1.05,0.19C65.26,36.23,64.2,37.55,62.82,38.74z"/>
	<path class="st1" d="M84.81,37.35v1.18c-0.77,0.7-1.39,1.17-1.86,1.41s-1.14,0.33-2.02,0.28c-1.52,1.8-2.86,2.71-4.02,2.71
		c-0.66,0-1.25-0.22-1.79-0.65s-0.97-1.03-1.29-1.78s-0.48-1.59-0.48-2.51c0-0.75,0.25-1.58,0.75-2.5s1.14-1.77,1.93-2.56
		s1.64-1.43,2.54-1.92c0.9-0.49,1.74-0.73,2.51-0.73c0.55,0,0.98,0.08,1.3,0.25s0.47,0.41,0.47,0.71c0,0.23-0.13,0.5-0.4,0.81
		c0.45,0.09,0.75,0.25,0.91,0.47s0.25,0.61,0.25,1.19c0,0.56-0.13,1.27-0.4,2.13s-0.62,1.66-1.08,2.41l0.32,0.32h0.26
		c0.2,0,0.4-0.05,0.59-0.15s0.37-0.21,0.52-0.32S84.29,37.73,84.81,37.35z M81.19,32.72c-0.97,0.59-1.8,1.12-2.5,1.59
		c-0.69,0.47-1.28,0.96-1.76,1.44s-0.8,0.98-0.97,1.47c-0.29,1.31-0.44,2.02-0.44,2.13c0,0.77,0.54,1.16,1.62,1.16
		c0.5,0,1.35-0.43,2.53-1.3c-0.2-0.55-0.3-1.08-0.3-1.58c0-0.74,0.15-1.49,0.46-2.26S80.59,33.72,81.19,32.72z"/>
	<path class="st1" d="M84.6,38.74v-1.14c0.63-0.75,1.11-1.39,1.44-1.92c-0.38-0.13-0.65-0.29-0.82-0.47s-0.25-0.47-0.25-0.84
		c0-0.42,0.18-0.96,0.53-1.6s0.79-1.25,1.3-1.81s0.98-0.93,1.41-1.09c0.16-0.08,0.32-0.12,0.47-0.12c0.23,0,0.35,0.11,0.35,0.33
		c0,0.2-0.18,0.6-0.54,1.21c2.41-0.38,3.94-0.56,4.57-0.56c0.25,0,0.42,0.02,0.51,0.07c0.2,0.11,0.36,0.35,0.49,0.74
		s0.19,0.77,0.19,1.16c0,0.25-0.11,0.51-0.33,0.8s-0.59,0.71-1.12,1.26c-0.62,0.67-1.14,1.39-1.56,2.18
		c-0.42,0.79-0.63,1.38-0.63,1.78c0,0.55,0.34,0.83,1.02,0.83c0.71,0,1.96-0.73,3.73-2.18v1.18c-0.97,1.02-1.78,1.82-2.41,2.41
		s-1.22,1.05-1.76,1.4s-1.02,0.52-1.44,0.52c-0.49,0-0.9-0.23-1.23-0.68s-0.49-1.1-0.49-1.96c0-0.5,0.13-1.08,0.39-1.72
		s0.64-1.35,1.13-2.1s1.06-1.51,1.68-2.26c-0.33,0.07-0.7,0.14-1.11,0.22s-0.84,0.16-1.3,0.24s-0.81,0.15-1.05,0.19
		C87.03,36.23,85.98,37.55,84.6,38.74z"/>
	<path class="st1" d="M97.34,34.24c1.78-1.62,3.51-2.82,5.19-3.6s2.97-1.18,3.88-1.18c0.25,0,0.47,0.1,0.69,0.31s0.38,0.44,0.5,0.71
		s0.18,0.47,0.18,0.6c0,0.21-0.08,0.37-0.25,0.47s-0.45,0.22-0.86,0.36c0.08,0.19,0.19,0.43,0.32,0.72s0.23,0.53,0.3,0.71
		s0.11,0.34,0.11,0.48c0,0.28-0.28,0.81-0.85,1.57s-0.97,1.33-1.2,1.7c-0.23,0.36-0.34,0.81-0.34,1.34c0,0.47,0.12,0.81,0.35,1.03
		c0,0,0.29,0.27,0.84,0.27c1.36,0.01,6.34-4.36,6.67-4.66c-0.94,1.14-1.88,2.28-2.82,3.43c-2.96,3.29-5.09,4.94-6.36,4.94
		c-0.46,0-0.78-0.15-0.98-0.45s-0.29-0.74-0.29-1.33c0-0.93,0.33-2.27,1-4.03c-1.71,1.9-2.98,3.25-3.81,4.05s-1.52,1.2-2.06,1.2
		c-0.26,0-0.58-0.22-0.97-0.67s-0.73-1.02-1.03-1.73s-0.45-1.44-0.45-2.21c0-0.55,0.05-1.01,0.16-1.38s0.31-0.75,0.62-1.13
		S96.67,34.87,97.34,34.24z M105.76,32.3c-3.05,1.39-5.22,2.58-6.51,3.55s-1.94,1.98-1.94,3.01c0,0.38,0.06,0.68,0.19,0.92
		s0.3,0.36,0.53,0.36c0.13,0,0.36-0.08,0.69-0.25c1.23-0.73,2.36-1.67,3.38-2.84C103.11,35.89,104.33,34.31,105.76,32.3z"/>
	<path class="st1" d="M119.51,31.04l-0.9,1.05c1.04,0.09,1.97,0.22,2.79,0.38s1.58,0.33,2.28,0.53s1.31,0.4,1.84,0.61
		c1.85,0.77,2.78,1.85,2.78,3.23c0,0.84-0.39,1.67-1.16,2.48s-1.78,1.53-3.01,2.16s-2.51,1.13-3.81,1.49s-2.49,0.54-3.56,0.54
		c-1.78,0-3.17-0.33-4.17-0.99s-1.49-1.57-1.49-2.72c0-0.8,0.3-1.73,0.91-2.81c0.61-1.08,1.55-2.42,2.83-4.03
		c-0.96-0.05-1.64-0.19-2.04-0.43s-0.6-0.58-0.6-1.01c0-0.27,0.08-0.47,0.23-0.62s0.36-0.24,0.62-0.31s0.75-0.14,1.49-0.24
		s1.67-0.21,2.82-0.35c1.28-1.57,2.42-2.75,3.44-3.54s2.1-1.25,3.26-1.36c0.09-0.01,0.2-0.02,0.31-0.02s0.17,0.03,0.17,0.09
		c0,0.07-0.13,0.26-0.4,0.56s-0.69,0.79-1.28,1.46s-1.29,1.46-2.1,2.37c2.2-0.29,4-0.63,5.41-1.01s2.46-0.83,3.17-1.36
		s1.07-1.11,1.07-1.76c0-0.79-0.38-1.35-1.14-1.71s-1.93-0.53-3.5-0.53c-0.87,0-1.86,0.09-2.98,0.26s-2.13,0.38-3.04,0.6
		s-1.72,0.46-2.43,0.71s-1.06,0.44-1.06,0.55c0,0.04,0.04,0.07,0.11,0.11c0.57,0.21,0.86,0.39,0.86,0.53c0,0.19-0.88,0.55-2.64,1.08
		s-2.94,0.8-3.55,0.8c-0.43,0-0.65-0.22-0.65-0.65c0-0.52,0.47-1.44,1.42-2.79s1.8-2.2,2.58-2.58c0.27-0.13,0.9-0.33,1.88-0.62
		s2.07-0.55,3.24-0.81s2.38-0.47,3.59-0.65s2.3-0.26,3.23-0.26c2.21,0,3.88,0.4,4.99,1.19s1.67,1.78,1.67,2.98
		c0,0.81-0.25,1.59-0.76,2.34s-1.3,1.46-2.38,2.13s-2.48,1.25-4.21,1.76S121.85,30.77,119.51,31.04z M117.64,33.3
		c-0.61,0.73-1.15,1.37-1.63,1.92s-0.81,1.01-1.02,1.35s-0.31,0.69-0.31,1.05c0,0.56,0.29,1.06,0.87,1.5s1.42,0.66,2.5,0.66
		c1.01,0,2.08-0.18,3.23-0.54s2.1-0.82,2.88-1.4c0.78-0.57,1.17-1.15,1.17-1.74c0-0.5-0.29-0.92-0.86-1.25s-1.45-0.62-2.62-0.87
		S119.28,33.52,117.64,33.3z"/>
	<path class="st1" d="M141.06,37.35v1.18c-0.77,0.7-1.39,1.17-1.86,1.41s-1.14,0.33-2.02,0.28c-1.52,1.8-2.87,2.71-4.03,2.71
		c-0.66,0-1.25-0.22-1.79-0.65s-0.97-1.03-1.29-1.78s-0.48-1.59-0.48-2.51c0-0.75,0.25-1.58,0.75-2.5s1.14-1.77,1.93-2.56
		s1.64-1.43,2.54-1.92s1.74-0.73,2.51-0.73c0.55,0,0.98,0.08,1.3,0.25s0.47,0.41,0.47,0.71c0,0.23-0.13,0.5-0.4,0.81
		c0.45,0.09,0.75,0.25,0.91,0.47s0.25,0.61,0.25,1.19c0,0.56-0.13,1.27-0.4,2.13s-0.62,1.66-1.08,2.41l0.32,0.32h0.26
		c0.2,0,0.4-0.05,0.59-0.15s0.37-0.21,0.52-0.32S140.54,37.73,141.06,37.35z M137.44,32.72c-0.97,0.59-1.8,1.12-2.5,1.59
		s-1.28,0.96-1.76,1.44s-0.8,0.98-0.97,1.47c-0.29,1.31-0.44,2.02-0.44,2.13c0,0.77,0.54,1.16,1.62,1.16c0.5,0,1.35-0.43,2.53-1.3
		c-0.2-0.55-0.3-1.08-0.3-1.58c0-0.74,0.15-1.49,0.46-2.26S136.84,33.72,137.44,32.72z"/>
	<path class="st1" d="M140.85,38.74v-1.14c0.63-0.75,1.11-1.39,1.44-1.92c-0.38-0.13-0.65-0.29-0.82-0.47s-0.25-0.47-0.25-0.84
		c0-0.42,0.18-0.96,0.53-1.6s0.79-1.25,1.3-1.81s0.98-0.93,1.41-1.09c0.16-0.08,0.32-0.12,0.47-0.12c0.23,0,0.35,0.11,0.35,0.33
		c0,0.2-0.18,0.6-0.54,1.21c2.41-0.38,3.94-0.56,4.57-0.56c0.25,0,0.42,0.02,0.51,0.07c0.2,0.11,0.36,0.35,0.49,0.74
		s0.19,0.77,0.19,1.16c0,0.25-0.11,0.51-0.33,0.8s-0.59,0.71-1.12,1.26c-0.62,0.67-1.14,1.39-1.56,2.18
		c-0.42,0.79-0.63,1.38-0.63,1.78c0,0.55,0.34,0.83,1.02,0.83c0.71,0,1.96-0.73,3.73-2.18v1.18c-0.97,1.02-1.78,1.82-2.41,2.41
		s-1.22,1.05-1.76,1.4s-1.02,0.52-1.44,0.52c-0.49,0-0.9-0.23-1.23-0.68s-0.49-1.1-0.49-1.96c0-0.5,0.13-1.08,0.39-1.72
		s0.64-1.35,1.13-2.1s1.06-1.51,1.68-2.26c-0.33,0.07-0.7,0.14-1.11,0.22s-0.84,0.16-1.3,0.24s-0.81,0.15-1.05,0.19
		C143.28,36.23,142.23,37.55,140.85,38.74z"/>
	<path class="st1" d="M154.35,38.02v0.44c0,0.69,0.17,1.23,0.51,1.62s0.79,0.58,1.34,0.58c0.57,0,1.17-0.13,1.78-0.4
		s1.23-0.63,1.84-1.07s1.35-1.04,2.23-1.79v1.07c-1.32,1.59-2.57,2.82-3.73,3.67s-2.34,1.27-3.53,1.27c-1.04,0-1.87-0.4-2.48-1.21
		s-0.91-1.92-0.91-3.32c0-1.23,0.29-2.35,0.86-3.35s1.51-2.06,2.81-3.17c0.89-0.76,1.78-1.34,2.65-1.72s1.66-0.58,2.36-0.58
		c0.55,0,0.99,0.13,1.31,0.38s0.48,0.63,0.48,1.13c0,0.74-0.28,1.47-0.83,2.21s-1.39,1.46-2.52,2.18S156,37.35,154.35,38.02z
		 M154.52,36.87c1.05-0.41,1.96-0.92,2.71-1.53s1.3-1.19,1.66-1.75s0.54-0.96,0.54-1.22c0-0.27-0.12-0.4-0.37-0.4
		c-0.21,0-0.55,0.13-1.03,0.4s-0.96,0.62-1.44,1.05s-0.92,0.94-1.31,1.53S154.64,36.18,154.52,36.87z"/>
	<path class="st1" d="M164.1,34.24c1.78-1.62,3.51-2.82,5.19-3.6s2.97-1.18,3.88-1.18c0.25,0,0.47,0.1,0.69,0.31s0.38,0.44,0.5,0.71
		s0.18,0.47,0.18,0.6c0,0.21-0.08,0.37-0.25,0.47s-0.45,0.22-0.86,0.36c0.08,0.19,0.19,0.43,0.32,0.72s0.23,0.53,0.3,0.71
		s0.11,0.34,0.11,0.48c0,0.28-0.28,0.81-0.85,1.57s-0.97,1.33-1.2,1.7c-0.23,0.36-0.34,0.81-0.34,1.34c0,0.87,0.4,1.3,1.2,1.3
		c0.82,0,2.1-0.77,3.85-2.3v1.07c-2.96,3.29-5.09,4.94-6.36,4.94c-0.46,0-0.78-0.15-0.98-0.45s-0.29-0.74-0.29-1.33
		c0-0.93,0.33-2.27,1-4.03c-1.71,1.9-2.98,3.25-3.81,4.05s-1.52,1.2-2.06,1.2c-0.26,0-0.58-0.22-0.97-0.67s-0.73-1.02-1.03-1.73
		s-0.45-1.44-0.45-2.21c0-0.55,0.05-1.01,0.16-1.38s0.31-0.75,0.62-1.13S163.43,34.87,164.1,34.24z M172.52,32.3
		c-3.05,1.39-5.22,2.58-6.51,3.55s-1.94,1.98-1.94,3.01c0,0.38,0.06,0.68,0.19,0.92s0.3,0.36,0.53,0.36c0.13,0,0.36-0.08,0.69-0.25
		c1.23-0.73,2.36-1.67,3.38-2.84C169.87,35.89,171.09,34.31,172.52,32.3z"/>
	<path class="st1" d="M185.06,37.19v1.3c-2.45,3.25-4.44,4.87-5.98,4.87c-0.83,0-1.49-0.45-1.96-1.36s-0.71-2.1-0.71-3.58
		c0-1.2,0.28-2.62,0.84-4.26s1.32-3.32,2.26-5.01s1.92-3.17,2.94-4.43s1.95-2.14,2.82-2.65c0.35-0.21,0.63-0.32,0.83-0.32
		c0.25,0,0.41,0.11,0.49,0.33s0.12,0.59,0.12,1.12c0,1.63-0.66,3.63-1.99,6s-3.17,4.8-5.54,7.27c-0.12,0.61-0.18,1.08-0.18,1.41
		c0,0.75,0.16,1.36,0.48,1.83s0.77,0.7,1.34,0.7c0.29,0,0.61-0.11,0.95-0.34s0.7-0.51,1.07-0.85S183.97,38.2,185.06,37.19z
		 M179.8,34.03c0.61-0.6,1.2-1.28,1.77-2.04c0.57-0.76,1.1-1.58,1.61-2.44s0.9-1.65,1.19-2.34s0.43-1.21,0.43-1.56
		c0-0.27-0.09-0.4-0.28-0.4c-0.07,0-0.21,0.06-0.4,0.19c-0.71,0.59-1.52,1.73-2.41,3.44S180.17,32.29,179.8,34.03z"/>
	<path class="st1" d="M193.3,37.38v1.28c-1.14,1.46-2.2,2.57-3.18,3.31s-1.82,1.12-2.51,1.12c-0.96,0-1.68-0.5-2.14-1.51
		s-0.7-2.11-0.7-3.3c0-0.46,0.05-0.89,0.14-1.31c0.09-0.42,0.21-0.76,0.33-1.03s0.37-0.69,0.72-1.27c1.66-2.59,3.19-3.88,4.57-3.88
		c0.71,0,1.07,0.28,1.07,0.83c0,0.38-0.23,0.96-0.69,1.76s-0.88,1.37-1.24,1.71c-1.02,0.98-1.68,1.67-2,2.06
		c-0.31,0.39-0.47,0.83-0.47,1.32c0,0.42,0.16,0.77,0.47,1.05s0.73,0.42,1.23,0.42c0.55,0,1.16-0.2,1.82-0.61
		S192.25,38.27,193.3,37.38z M193.33,30.51c-1.53,0.3-1.78,0.39-1.89,0.23c-0.05-0.07-0.02-0.12,0.12-1.12
		c0-0.02,0.02-0.12,0.04-0.31c0.12-0.85,0.12-0.89,0.14-1.01c0.07-0.45,0.13-0.8,0.33-1.16c0.09-0.17,0.42-0.75,1.09-0.95
		c0.34-0.1,0.96-0.15,1.2,0.19c0.15,0.21,0.11,0.48,0.07,0.71c-0.09,0.61-0.45,0.98-0.39,1.03c0.05,0.04,0.24-0.21,0.6-0.37
		c0.12-0.05,0.72-0.33,1.1-0.07c0.39,0.27,0.29,0.95,0.25,1.25c-0.03,0.18-0.07,0.5-0.32,0.77c-0.1,0.11-0.21,0.18-0.29,0.23
		c-0.31,0.19-0.6,0.24-0.73,0.26C194.2,30.28,193.77,30.42,193.33,30.51z M192.46,28.47"/>
	<path class="st1" d="M193.07,37.88v-0.42c3.32-3.19,5.6-5.42,6.85-6.7c0.28-1.44,0.96-2.16,2.04-2.16c0.27,0,0.56,0.07,0.87,0.21
		l0.12,0.33c-0.05,0.14-0.08,0.34-0.08,0.6c0,0.22,0.09,0.64,0.28,1.24c0.19,0.6,0.33,1.11,0.43,1.52s0.15,0.87,0.15,1.39
		c0,0.77-0.19,1.51-0.58,2.22c-0.39,0.71-0.95,1.39-1.68,2.04s-1.68,1.32-2.84,2c0.46,0.07,0.83,0.11,1.1,0.11
		c0.53,0,1.1-0.12,1.71-0.36c0.96-0.38,1.64-0.81,1.87-0.97c1.15-0.79,3.22-2.41,5.78-4.62c-1.18,1.41-2.37,2.82-3.55,4.23
		c-1.65,1.46-3.12,2.58-4.42,3.33c-1.3,0.76-2.42,1.13-3.36,1.13c-1.21,0-2.33-0.47-3.36-1.41c-0.6-0.56-0.98-1.1-1.13-1.62
		S193.07,38.75,193.07,37.88z M200.27,35.19l-0.35-2.57c-0.8,0.82-2.5,2.4-5.11,4.73c0.77,0.15,1.3,0.36,1.58,0.62
		c0.28,0.26,0.68,0.76,1.2,1.49c0.87-0.33,1.55-0.78,2.02-1.34s0.7-1.35,0.7-2.33c0-0.12,0-0.22-0.01-0.32
		C200.29,35.37,200.28,35.28,200.27,35.19z"/>
</g>
<g>
</g>
<g>
</g>
<g>
</g>
<g>
</g>
<g>
</g>
</svg>
