<svg xmlns="http://www.w3.org/2000/svg" width="32" height="32">
    <path style="stroke:none;fill-rule:nonzero;fill:#000;fill-opacity:1" d="m17.012 3.023-.914 1.657c-2.172 3.953-4.344 7.906-6.52 11.855l-1.914-1.914L7 15.72c-1.95 3.254-3.906 6.511-5.86 9.765L.235 27h31.282l-.594-1.395-3-7-.582-1.355-2.07 2.066c-2.465-4.867-4.934-9.738-7.403-14.605Zm-.075 4.282c1.016 1.996 2.028 3.996 3.043 5.992l-.777.668-2.277-1.953-2.281 1.953-.926-.8c1.074-1.954 2.144-3.907 3.219-5.86Zm-.011 7.336 2.277 1.953 1.703-1.457c1.067 2.105 2.137 4.21 3.203 6.316l.621 1.23 1.93-1.933c.61 1.418 1.215 2.836 1.824 4.25H3.766c1.43-2.387 2.863-4.77 4.293-7.156l1.988 1.988.64-1.164c.684-1.238 1.364-2.477 2.047-3.715l1.91 1.64Zm0 0"/>
</svg>
