<svg xmlns="http://www.w3.org/2000/svg" width="32" height="32">
    <path style="stroke:none;fill-rule:nonzero;fill:#000;fill-opacity:1" d="M23.668 5.453 20.293 8.04l1.215 4.082L18 9.707l-3.508 2.414 1.215-4.082-3.375-2.586 4.254-.121 1.414-4 1.414 4 4.254.121m4.664 9.215-2.184 1.664.786 2.64-2.266-1.558-2.27 1.559.79-2.641L21 14.668l2.746-.066.922-2.602.918 2.602 2.746.066m-3.039 6.598c1.105-.106 2.293 1.468 1.586 2.468-.426.598-.879 1.16-1.438 1.692-5.214 5.242-13.656 5.242-18.855 0-5.211-5.2-5.211-13.653 0-18.852A13.087 13.087 0 0 1 8.28 5.133c1-.707 2.57.48 2.465 1.586a13.302 13.302 0 0 0 3.856 10.695c2.918 2.934 6.863 4.211 10.691 3.852m-2.188 2.695a16.106 16.106 0 0 1-10.398-4.629A16.065 16.065 0 0 1 8.055 8.906c-3.746 4.188-3.602 10.614.41 14.64 4.027 4.013 10.457 4.161 14.64.415Zm0 0"/>
</svg>
