<svg xmlns="http://www.w3.org/2000/svg" width="32" height="32">
    <path style="stroke:none;fill-rule:nonzero;fill:#000;fill-opacity:1" d="M14.719 5.254V.69h2.562v4.563l1.465-1.469 1.469-1.465.879.88c.484.484.879.902.879.933 0 .031-1.055 1.11-2.348 2.402L17.277 8.88l.016.988.016.985 1.226.707c.672.39 1.258.707 1.305.707.055 0 1.52-.805 1.691-.926.004-.004.399-1.461.871-3.235.473-1.773.868-3.23.871-3.234.004-.008.54.129 1.18.305.649.172 1.192.316 1.215.316.074.004.039.168-.469 2.063-.281 1.043-.504 1.906-.492 1.918.012.011.89-.485 1.953-1.102 1.063-.613 1.95-1.117 1.969-1.117.023.004.316.492.66 1.094l.625 1.09-.383.226-1.98 1.145c-.88.507-1.563.933-1.52.949.04.012.903.242 1.914.512l1.926.515c.07.02.031.207-.242 1.246-.176.672-.344 1.223-.371 1.223-.028 0-1.488-.383-3.242-.856l-3.192-.855-.855.492-.852.488.031 2.977.84.484.84.48 3.207-.862c1.762-.477 3.223-.844 3.246-.82.04.042.684 2.374.668 2.402-.004.007-.86.242-1.898.523-1.04.277-1.934.523-1.98.547-.067.027.359.3 1.62 1.027l1.97 1.133.253.145-.625 1.093c-.34.602-.637 1.09-.66 1.094-.02 0-.906-.504-1.969-1.117-1.066-.613-1.945-1.11-1.953-1.098-.012.008.211.871.492 1.914.508 1.895.543 2.059.469 2.063-.023 0-.566.144-1.215.316-.64.176-1.176.313-1.18.305-.003-.004-.382-1.414-.84-3.129-.456-1.715-.855-3.172-.882-3.23-.051-.118-1.574-1.036-1.715-1.036-.043 0-.629.317-1.3.707l-1.227.707-.016.985-.016.988 2.348 2.344c1.293 1.293 2.348 2.37 2.348 2.402 0 .031-.395.45-.88.934l-.878.879-1.469-1.465-1.465-1.469v4.563H14.72v-4.563l-1.465 1.469-1.469 1.465-.879-.88c-.484-.484-.879-.902-.879-.933 0-.031 1.055-1.11 2.348-2.402l2.348-2.344-.016-.988-.016-.985-1.25-.726c-.691-.402-1.265-.723-1.28-.715-.364.164-1.677.977-1.712 1.063-.027.058-.426 1.515-.883 3.23a492.774 492.774 0 0 1-.84 3.129c-.003.008-.539-.129-1.18-.305-.648-.172-1.19-.316-1.214-.316-.074-.004-.039-.168.469-2.063.281-1.043.504-1.906.492-1.914-.008-.011-.887.485-1.953 1.098-1.063.613-1.95 1.117-1.969 1.117-.023-.004-.32-.492-.66-1.094l-.625-1.093.254-.145 1.969-1.133c1.265-.73 1.687-1 1.62-1.027a70.577 70.577 0 0 0-1.976-.547 81.182 81.182 0 0 1-1.898-.52c-.02-.027.625-2.363.664-2.406.023-.023 1.484.348 3.25.82l3.207.864.84-.48.836-.485.03-2.984-.85-.485-.852-.488-3.196.855c-1.757.47-3.214.856-3.242.856-.027 0-.195-.55-.37-1.223-.274-1.039-.313-1.226-.243-1.246l1.926-.515 1.914-.512c.039-.016-.813-.54-1.895-1.164-1.082-.63-1.965-1.156-1.96-1.18.011-.078 1.222-2.156 1.257-2.16.66.363 1.317.734 1.969 1.117 1.062.617 1.941 1.113 1.953 1.102.012-.012-.211-.875-.492-1.918-.504-1.883-.543-2.059-.469-2.063.023 0 .566-.144 1.215-.316.64-.176 1.176-.313 1.18-.305.003.004.394 1.461.87 3.234.473 1.774.864 3.227.872 3.23.535.313 1.07.618 1.61.919.089.043.312-.066 1.362-.676l1.25-.726.016-.985.016-.988-2.348-2.344c-1.293-1.293-2.348-2.37-2.348-2.402 0-.031.395-.45.88-.934l.878-.879 1.469 1.465Zm2.629 8.57c-.668-.383-1.25-.71-1.293-.726-.047-.02-.606.27-1.348.699l-1.266.734v2.938l.278.164L15 18.37l1 .578 1.281-.734 1.278-.735v-2.957Zm0 0"/>
</svg>
